<svg xmlns="http://www.w3.org/2000/svg" viewBox="0 0 100 100" fill="none">
  <defs>
    <clipPath id="hssClipFinal">
      <circle cx="50" cy="50" r="50" />
    </clipPath>
  </defs>
  <g clip-path="url(#hssClipFinal)">
    <g stroke-width="10" fill="none" stroke-linecap="butt">
      <!-- Green Top Half (Interlocking Hooks) -->
      <g stroke="#78be20" transform="translate(0, -1.5)">
        <path d="M 43 50 A 7 7 0 0 1 50 43 L 100 43" />
        <path d="M 31 50 A 19 19 0 0 1 50 31 L 100 31" />
        <path d="M 19 50 A 31 31 0 0 1 50 19 L 100 19" />
        <path d="M 7 50 A 43 43 0 0 1 50 7 L 100 7" />
      </g>
      <!-- Blue Bottom Half (Interlocking Hooks) -->
      <g stroke="#002f56" transform="translate(0, 1.5)">
        <path d="M 57 50 A 7 7 0 0 1 50 57 L 0 57" />
        <path d="M 69 50 A 19 19 0 0 1 50 69 L 0 69" />
        <path d="M 81 50 A 31 31 0 0 1 50 81 L 0 81" />
        <path d="M 93 50 A 43 43 0 0 1 50 93 L 0 93" />
      </g>
    </g>
  </g>
</svg>
